<svg width="48" height="48" version="1.1" xmlns="http://www.w3.org/2000/svg" desc="Created with imagetracer.js version 1.2.6" ><path fill="rgb(0,0,0)" stroke="rgb(0,0,0)" stroke-width="1" opacity="0" d="M 0 0 L 48 0 L 48 48 L 0 48 L 0 0 Z M 19 3 Q 15 6 16 12 L 7 16 Q 3 17 4 23 L 12 26 L 20 37 L 24 36 L 28 25 L 31 26 L 36 24 Q 38 22 37 17 L 30 14 Q 25 11 24 5 Q 23 2 19 3 Z M 35 28 L 33 31 L 28 35 Q 27 38 30 39 Q 35 37 33 43 Q 34 45 38 44 L 39 42 L 42 40 Q 45 39 44 35 L 42 33 L 39 30 Q 38 27 35 28 Z " /><path fill="rgb(191,188,253)" stroke="rgb(191,188,253)" stroke-width="1" opacity="0.9686274509803922" d="M 19.5 10 L 23 12.5 L 27.5 18 Q 29.8 17.3 29 19.5 L 30 21.5 L 29 25 L 26 24.5 L 26 22.5 L 17.5 13 L 15 12.5 L 19.5 10 Z " /><path fill="rgb(191,188,253)" stroke="rgb(191,188,253)" stroke-width="1" opacity="0.9686274509803922" d="M 33.5 35 L 32.5 37 L 33.5 35 Z " /><path fill="rgb(213,211,253)" stroke="rgb(213,211,253)" stroke-width="1" opacity="0.996078431372549" d="M 16 13 L 17.5 13 L 26 21.5 L 27 23.5 L 23.5 27 L 22 25.5 L 14 16.5 L 16 16 L 16 13 Z " /><path fill="rgb(213,211,253)" stroke="rgb(213,211,253)" stroke-width="1" opacity="0.996078431372549" d="M 35.5 34 L 38 35.5 Q 38.5 39.5 35.5 40 L 34 39.5 L 36 39 L 34 35.5 L 35.5 34 Z " /><path fill="rgb(165,145,254)" stroke="rgb(165,145,254)" stroke-width="1" opacity="0.9803921568627451" d="M 20.5 7 L 27.5 17 L 34 20.5 L 29.5 23 L 30 21.5 L 29 18 L 23 13.5 L 20.5 10 L 18.5 11 L 19 9.5 L 20.5 7 Z " /><path fill="rgb(165,145,254)" stroke="rgb(165,145,254)" stroke-width="1" opacity="0.9803921568627451" d="M 13.5 16 L 12.5 18 L 13.5 16 Z " /><path fill="rgb(165,145,254)" stroke="rgb(165,145,254)" stroke-width="1" opacity="0.9803921568627451" d="M 13.5 23 L 17.5 28 L 13.5 23 Z " /><path fill="rgb(165,145,254)" stroke="rgb(165,145,254)" stroke-width="1" opacity="0.9803921568627451" d="M 25.5 25 L 23.5 28 L 25.5 25 Z " /><path fill="rgb(165,145,254)" stroke="rgb(165,145,254)" stroke-width="1" opacity="0.9803921568627451" d="M 36.5 32 L 40 36.5 L 36 39.5 Q 41.8 36.7 36.5 34 L 34.5 35 L 36.5 32 Z " /><path fill="rgb(234,233,254)" stroke="rgb(234,233,254)" stroke-width="1" opacity="0.9882352941176471" d="M 13.5 17 L 22 24.5 L 23 27.5 L 20.5 33 Q 18.9 25.1 12.5 22 L 8 20.5 L 13.5 17 Z " /><path fill="rgb(234,233,254)" stroke="rgb(234,233,254)" stroke-width="1" opacity="0.9882352941176471" d="M 33 36 L 36 37.5 Q 36.8 39.8 34.5 39 L 33 39.5 L 33 36 Z " /><path fill="rgb(132,81,254)" stroke="rgb(132,81,254)" stroke-width="1" opacity="0.7843137254901961" d="M 18.5 3 Q 23 2 24 4.5 Q 24.9 11.1 29.5 14 L 37 17 Q 38.5 22.4 35.5 24 L 30.5 26 L 29 23.5 L 34 20.5 L 24 13.5 L 20.5 7 L 17.5 11 Q 14.5 11.9 16 7.5 L 18.5 3 Z " /><path fill="rgb(132,81,254)" stroke="rgb(132,81,254)" stroke-width="1" opacity="0.7843137254901961" d="M 13.5 12 L 16 13.5 L 15 16 L 7 19 Q 5.9 21.7 8.5 21 L 18 28.5 L 20.5 34 L 26.5 25 Q 29.1 24.2 28 27.5 Q 24.3 30.6 24 36 L 19.5 37 L 11.5 26 L 4 22.5 Q 3 17 6.5 16 L 13.5 12 Z " /><path fill="rgb(132,81,254)" stroke="rgb(132,81,254)" stroke-width="1" opacity="0.7843137254901961" d="M 34.5 28 Q 38.3 27.3 39 29.5 L 41.5 33 L 44 34.5 Q 44.8 39.3 41.5 40 L 39 41.5 L 37.5 44 Q 33.8 44.8 33 42.5 Q 31.7 38.3 36.5 40 Q 43.3 36.7 37 33.5 L 36.5 32 L 32 36.5 L 32 39 L 28 37.5 Q 27.3 33.8 29.5 33 L 33 30.5 L 34.5 28 Z " /></svg>